<svg xmlns="http://www.w3.org/2000/svg" width="151" height="116" fill="none" viewBox="0 0 151 116"><path fill="#fff" d="M150.971 7.509C146.475 1.696 140.248.886 134.415.886a115.6 115.6 0 0 0-24.103 2.87C74.608 12.92 47.688 34.314 28.773 65.647c-4.78 7.984-8.497 16.783-13.092 26.176-6.424-7.377-7.516-17.84-13.732-25.817-2.387 3.657-1.283 6.953-.441 9.709 3.497 11.295 7.195 22.66 11.162 33.893 1.953 5.382 4.42 6.684 9.273 4.328 10.177-4.772 17.902-12.186 22.905-22.11.138-.4-.255-1.208-.71-2.486-9.38-.779-11.184 10.924-19.983 12.363 1.57-14.921 8.545-27.3 16.583-38.864 8.446-12.094 17.887-23.172 29.85-31.81 11.692-8.506 24.627-14.117 38.356-18.782 13.599-4.934 27.492-6.18 42.026-4.738"/></svg>