<svg xmlns="http://www.w3.org/2000/svg" width="283" height="393" fill="#fff" viewBox="0 0 283 393"><path d="M223.141 95.561c-12.201 9.601-19.784 16.055-18.623 18.347 1.162 2.292 10.613-.231 24.861-7.282a238 238 0 0 0 24.209-14.08 299 299 0 0 0 13.66-9.61l7.101-5.509a19.7 19.7 0 0 0 8.619-13.915 14.55 14.55 0 0 0-1.768-7.77 25 25 0 0 0-2.285-3.355l-1.936-2.284c-1.785-2.066-3.48-4.139-5.167-6.12-3.461-3.867-6.824-7.65-10.035-11.214-6.471-7.171-12.51-13.369-17.977-18.557C233.204 4.132 225.841-1.426 223.648.504s1.937 10.222 9.82 22.633c3.986 6.202 8.949 13.341 14.556 21.21 2.758 3.596 5.667 7.41 8.631 11.356a132.2 132.2 0 0 0-27.041-5.796 174 174 0 0 0-33.743-.453 200.4 200.4 0 0 0-47.065 8.77 210.9 210.9 0 0 0-106.762 77.714A225.3 225.3 0 0 0 9.198 201.98 206 206 0 0 0 .28 271.023c.253 5.46.78 10.905 1.582 16.313.412 2.663.727 5.241 1.473 8.109.745 2.868 1.144 5.35 1.81 7.721a136.2 136.2 0 0 0 11.398 26.995 161.8 161.8 0 0 0 28.84 39.11c19.655 19.079 36.016 24.792 36.697 23.422.68-1.37-13.192-10.037-29.811-30.056a174.6 174.6 0 0 1-24.357-38.279 133 133 0 0 1-8.821-25.348 68 68 0 0 1-1.288-6.754c-.296-2.306-.423-4.806-.683-7.251-.611-4.885-.55-9.952-.72-15.05a197.4 197.4 0 0 1 10.694-63.143 211.6 211.6 0 0 1 31.295-58.773 193.66 193.66 0 0 1 95.562-67.498 200.7 200.7 0 0 1 72.202-9.41c10.73.81 19.003 1.698 25.035 2.513l-6.653 5.386-21.333 16.755"/></svg>