<svg xmlns="http://www.w3.org/2000/svg" width="198" height="199" fill="none" viewBox="0 0 198 199"><path fill="#383D38" d="M99.282.98h-.45C44.415.98.302 45.106.302 99.539v.45c0 54.432 44.113 98.558 98.53 98.558h.45c54.416 0 98.529-44.126 98.529-98.559v-.45c0-54.432-44.113-98.558-98.53-98.558"/><path fill="#fff" d="M129.618 41.174H68.503c-16.885 0-30.62 13.74-30.62 30.63v55.927c0 16.889 13.735 30.629 30.62 30.629h61.115c16.884 0 30.619-13.74 30.619-30.629V71.803c0-16.889-13.735-30.629-30.619-30.629m-80.933 30.63c0-10.93 8.891-19.825 19.817-19.825h61.116c10.926 0 19.818 8.895 19.818 19.824v55.928c0 10.929-8.892 19.824-19.818 19.824H68.503c-10.927 0-19.818-8.895-19.818-19.824z"/><path fill="#fff" d="M99.06 128.25c15.701 0 28.482-12.778 28.482-28.49S114.768 71.27 99.06 71.27 70.58 84.048 70.58 99.76s12.773 28.49 28.481 28.49m0-46.168c9.75 0 17.68 7.932 17.68 17.685s-7.93 17.685-17.68 17.685-17.68-7.932-17.68-17.685 7.93-17.685 17.68-17.685m31.117-6.209c4.228 0 7.674-3.44 7.674-7.676s-3.439-7.677-7.674-7.677-7.674 3.44-7.674 7.677a7.68 7.68 0 0 0 7.674 7.676"/></svg>