<svg xmlns="http://www.w3.org/2000/svg" width="200" height="200" fill="none" viewBox="0 0 200 200"><path fill="#000" d="M166.903 117.448a3.4 3.4 0 0 0-1.144 2.375 370 370 0 0 1-2.081 25.268c-1.284 10.981-10.163 19.728-21.248 20.967-27.965 3.125-56.895 3.125-84.86 0-11.084-1.239-19.964-9.986-21.248-20.967a370.2 370.2 0 0 1 0-86.005C37.606 48.106 46.486 39.36 57.57 38.12c18.437-2.06 37.317-2.762 56.042-2.105a2.513 2.513 0 0 0 2.598-2.332l.409-5.858q.038-.517.101-1.024c.204-1.62-.919-3.217-2.551-3.275-19.38-.686-38.896.037-57.988 2.171-16.767 1.874-30.303 15.083-32.274 31.937a382.7 382.7 0 0 0 0 88.909c1.971 16.855 15.507 30.063 32.274 31.937 28.889 3.229 58.75 3.229 87.638 0 16.767-1.874 30.303-15.082 32.274-31.937a383 383 0 0 0 2.503-36.229c.032-1.519-1.831-2.276-2.897-1.194a174 174 0 0 1-8.796 8.328"/><path fill="#000" d="M65.56 129.587a4.166 4.166 0 0 1-3.059-4.117l.494-20.532c.707-29.4 24.743-52.865 54.151-52.865h10.478q.329-7.797.897-15.584l.565-7.755c.345-4.733 5.622-7.379 9.621-4.824a161.5 161.5 0 0 1 44.21 41.87l3.8 5.291a4.165 4.165 0 0 1 0 4.862l-3.8 5.291a161.5 161.5 0 0 1-44.21 41.87c-3.293 2.105-7.465.682-9.024-2.529a6.4 6.4 0 0 1-.597-2.294l-.565-7.755a506 506 0 0 1-1.014-18.588l-2.951-.444a45.83 45.83 0 0 0-46.741 22.804l-7.52 13.329a4.17 4.17 0 0 1-4.735 1.97"/></svg>