<svg xmlns="http://www.w3.org/2000/svg" width="199" height="199" fill="none" viewBox="0 0 199 199"><path fill="#383D38" d="M99.484.98h-.45C44.619.98.504 45.106.504 99.539v.45c0 54.432 44.114 98.558 98.53 98.558h.45c54.417 0 98.53-44.126 98.53-98.559v-.45c0-54.432-44.113-98.558-98.53-98.558"/><path fill="#FEFFFC" d="M37.913 96.396q.416-.207.823-.395c4.692-2.173 9.446-4.208 14.193-6.243.255 0 .684-.297.927-.394.366-.16.733-.312 1.1-.471.706-.305 1.412-.602 2.11-.907 1.412-.602 2.817-1.204 4.228-1.806l8.45-3.62c5.632-2.41 11.272-4.825 16.904-7.234 5.633-2.408 11.272-4.824 16.905-7.233s11.272-4.824 16.905-7.233 11.272-4.825 16.905-7.233c1.252-.54 2.609-1.343 3.951-1.579 1.128-.2 2.228-.588 3.363-.803 2.152-.408 4.525-.574 6.588.319a6.2 6.2 0 0 1 1.916 1.294c2.616 2.589 2.249 6.839 1.696 10.48-3.855 25.375-7.709 50.757-11.57 76.132-.526 3.482-1.246 7.303-3.993 9.504-2.325 1.862-5.632 2.069-8.504 1.28-2.872-.796-5.404-2.464-7.889-4.104-10.303-6.825-20.613-13.65-30.917-20.475-2.45-1.62-5.176-3.738-5.148-6.679.014-1.772 1.072-3.35 2.152-4.756 8.954-11.684 21.873-19.713 31.485-30.857 1.356-1.571 2.422-4.409.56-5.316-1.107-.54-2.38.194-3.391.893-12.704 8.825-25.402 17.658-38.107 26.483-4.144 2.879-8.49 5.842-13.486 6.548-4.47.637-8.968-.609-13.293-1.883a646 646 0 0 1-10.85-3.288c-1.917-.595-3.896-1.239-5.377-2.588-1.48-1.35-2.331-3.621-1.439-5.42.56-1.129 1.647-1.841 2.789-2.423z"/></svg>