<svg width="151" height="116" viewBox="0 0 151 116" fill="none" xmlns="http://www.w3.org/2000/svg">
<path d="M150.971 7.50878C146.475 1.6955 140.248 0.886449 134.415 0.885867C126.3 0.992846 118.109 1.96983 110.312 3.75525C74.6076 12.9213 47.6879 34.3145 28.7732 65.6481C23.9926 73.6316 20.2759 82.4313 15.6811 91.8238C9.25747 84.4474 8.16454 73.9842 1.94862 66.0073C-0.43804 69.6641 0.665964 72.9595 1.5076 75.7158C5.00531 87.0108 8.70338 98.375 12.6711 109.608C14.624 114.99 17.0908 116.292 21.9442 113.936C32.121 109.164 39.8456 101.75 44.8485 91.8267C44.987 91.4264 44.5935 90.6179 44.1381 89.3398C34.7593 88.5613 32.9555 100.264 24.1561 101.703C25.7268 86.7819 32.7009 74.4024 40.739 62.8391C49.1852 50.7446 58.6261 39.6665 70.5883 31.0293C82.2809 22.5229 95.216 16.9116 108.945 12.2473C122.544 7.31347 136.437 6.0676 150.971 7.50878Z" fill="white"/>
</svg>
