<svg width="283" height="393" viewBox="0 0 283 393" fill="#fff" xmlns="http://www.w3.org/2000/svg">
<path d="M223.141 95.5611C210.94 105.162 203.357 111.616 204.518 113.908C205.68 116.2 215.131 113.677 229.379 106.626C237.718 102.412 245.801 97.7105 253.588 92.5464C258.037 89.5934 262.607 86.4039 267.248 82.9357L274.349 77.4275C276.7 75.8616 278.686 73.8085 280.173 71.4075C281.66 69.0065 282.613 66.3137 282.968 63.5119C283.113 60.8079 282.501 58.117 281.2 55.7421C280.53 54.5639 279.766 53.4419 278.915 52.3873L276.979 50.1033C275.194 48.0369 273.499 45.9642 271.812 43.9824C268.351 40.1157 264.988 36.3336 261.777 32.7691C255.306 25.5978 249.267 19.4001 243.8 14.2123C233.204 4.13247 225.841 -1.42616 223.648 0.504375C221.455 2.43491 225.585 10.7258 233.468 23.137C237.454 29.3394 242.417 36.478 248.024 44.3476C250.782 47.9435 253.691 51.757 256.655 55.7035C247.869 52.8312 238.805 50.8884 229.614 49.907C218.408 48.6617 207.107 48.5101 195.871 49.4542C179.889 50.4864 164.088 53.4306 148.806 58.2239C105.817 72.0328 68.395 99.2734 42.0438 135.938C27.5408 155.998 16.4433 178.311 9.1975 201.98C2.3286 224.322 -0.68711 247.669 0.279596 271.023C0.532632 276.483 1.06083 281.928 1.8622 287.336C2.27417 289.999 2.58905 292.577 3.33451 295.445C4.07996 298.313 4.47939 300.795 5.14496 303.166C7.96242 312.548 11.7839 321.599 16.543 330.161C24.1317 344.575 33.8546 357.761 45.3826 369.271C65.0384 388.35 81.3991 394.063 82.08 392.693C82.7609 391.323 68.8876 382.656 52.269 362.637C42.519 350.991 34.3308 338.123 27.9117 324.358C24.1232 316.228 21.1678 307.735 19.0907 299.01C18.5482 296.782 18.1185 294.528 17.8032 292.256C17.5072 289.95 17.3801 287.45 17.12 285.005C16.509 280.12 16.5697 275.053 16.4002 269.955C16.5038 248.465 20.1159 227.137 27.0939 206.812C34.3589 185.692 44.9214 165.856 58.3894 148.039C82.5225 116.226 115.9 92.6499 153.951 80.5406C177.243 73.0273 201.713 69.8379 226.153 71.1301C236.883 71.9402 245.156 72.8287 251.188 73.6439L244.535 79.03L223.202 95.785"/>
</svg>
