<svg width="200" height="200" viewBox="0 0 200 200" fill="none" xmlns="http://www.w3.org/2000/svg">
<path d="M166.903 117.448C166.217 118.053 165.803 118.909 165.759 119.823C165.354 128.261 164.661 136.689 163.678 145.091C162.394 156.072 153.515 164.819 142.43 166.058C114.465 169.183 85.5351 169.183 57.5697 166.058C46.4855 164.819 37.6064 156.072 36.3222 145.091C32.9805 116.52 32.9805 87.6571 36.3222 59.0861C37.6064 48.1054 46.4855 39.3587 57.5697 38.1198C76.0074 36.0591 94.8868 35.358 113.612 36.0146C114.964 36.0621 116.115 35.0332 116.21 33.6834L116.619 27.825C116.644 27.48 116.678 27.1388 116.72 26.8014C116.924 25.1815 115.801 23.5842 114.169 23.5264C94.7892 22.8398 75.2728 23.5634 56.1813 25.6972C39.4142 27.5711 25.8781 40.7796 23.9068 57.634C20.4523 87.1698 20.4523 117.008 23.9068 146.543C25.8781 163.398 39.4142 176.606 56.1813 178.48C85.0695 181.709 114.931 181.709 143.819 178.48C160.586 176.606 174.122 163.398 176.093 146.543C177.501 134.503 178.336 122.413 178.596 110.314C178.628 108.795 176.765 108.038 175.699 109.12C172.865 111.997 169.931 114.775 166.903 117.448Z" fill="black"/>
<path d="M65.5601 129.587C63.7165 129.079 62.4553 127.382 62.5012 125.47L62.9949 104.938C63.7017 75.5379 87.7377 52.0729 117.146 52.0729L127.624 52.0729C127.843 46.8751 128.142 41.6799 128.521 36.489L129.086 28.7337C129.431 24.0008 134.708 21.3551 138.707 23.9103C155.965 34.9377 170.968 49.1468 182.917 65.7802L186.717 71.0714C187.761 72.524 187.761 74.4806 186.717 75.9332L182.917 81.2244C170.968 97.8578 155.965 112.067 138.707 123.094C135.414 125.199 131.242 123.776 129.683 120.565C129.356 119.883 129.146 119.096 129.086 118.271L128.521 110.516C128.069 104.325 127.731 98.128 127.507 91.928L124.556 91.4839C105.754 88.6541 87.157 97.7271 77.815 114.288L70.2958 127.617C69.9376 128.252 69.4294 128.765 68.839 129.126C67.8811 129.71 66.6997 129.901 65.5601 129.587Z" fill="black"/>
</svg>
