<svg xmlns="http://www.w3.org/2000/svg" width="512.000000pt" height="512.000000pt" version="1.0" viewBox="0 0 512.000000 512.000000"><path d="M88.7 152.7c-.4.3-.7 9.3-.7 20V192h63v174h52V192h64v-40h-88.8c-48.9 0-89.2.3-89.5.7m239.8 4.3c-29.6 6.4-49.2 22.1-55 44.1-1.9 7.1-1.9 20 0 27.4 6.1 23.2 25.6 38.6 68 53.5 26.3 9.2 34.9 14.3 38.6 22.5 2.2 4.7 2.4 13.3.5 17.8-3.3 8-13.2 12.7-26.7 12.7-23.1 0-34.3-8.5-36.6-27.7l-.6-5.3h-51.8l.6 6.2c2.7 25.9 15.6 43.8 40 55.4 29.2 13.9 71.1 14 97.9.1 10.1-5.1 20.1-14.7 24.4-23.3 4.3-8.5 6.6-20.7 5.8-30.5-1.7-20.4-10.8-35.2-29.2-47.5-10.2-6.8-19.3-10.9-39.7-18-26.1-9.1-35.7-14.5-39.7-22.5-5.2-10.1 1.3-22.1 14.2-26.3 6.4-2.1 20-2.1 25.9-.1 9.3 3.2 16.9 12.9 16.9 21.7v3.8h52.3l-.7-6.3c-3-27.8-20.4-47.3-50.3-56.3-7.9-2.4-10.7-2.7-27.3-3-15.5-.3-20 0-27.5 1.6"/></svg>