<?xml version="1.0" standalone="no"?>
<!DOCTYPE svg PUBLIC "-//W3C//DTD SVG 20010904//EN"
 "http://www.w3.org/TR/2001/REC-SVG-20010904/DTD/svg10.dtd">
<svg version="1.0" xmlns="http://www.w3.org/2000/svg"
 width="512.000000pt" height="512.000000pt" viewBox="0 0 512.000000 512.000000"
 preserveAspectRatio="xMidYMid meet">
<metadata>
Created by potrace 1.14, written by Peter Selinger 2001-2017
</metadata>
<g transform="translate(0.000000,512.000000) scale(0.100000,-0.100000)"
fill="#000000" stroke="none">
<path d="M887 3593 c-4 -3 -7 -93 -7 -200 l0 -193 315 0 315 0 0 -870 0 -870
260 0 260 0 0 870 0 870 320 0 320 0 0 200 0 200 -888 0 c-489 0 -892 -3 -895
-7z"/>
<path d="M3285 3550 c-296 -64 -492 -221 -550 -441 -19 -71 -19 -200 0 -274
61 -232 256 -386 680 -535 263 -92 349 -143 386 -225 22 -47 24 -133 5 -178
-33 -80 -132 -127 -267 -127 -231 0 -343 85 -366 277 l-6 53 -259 0 -259 0 6
-62 c27 -259 156 -438 400 -554 292 -139 711 -140 979 -1 101 51 201 147 244
233 43 85 66 207 58 305 -17 204 -108 352 -292 475 -102 68 -193 109 -397 180
-261 91 -357 145 -397 225 -52 101 13 221 142 263 64 21 200 21 259 1 93 -32
169 -129 169 -217 l0 -38 261 0 262 0 -7 63 c-30 278 -204 473 -503 563 -79
24 -107 27 -273 30 -155 3 -200 0 -275 -16z"/>
</g>
</svg>
